<svg xmlns="http://www.w3.org/2000/svg" viewBox="0 0 53.15 53.15"><defs><style>.cls-1{fill:#66519d;}.cls-2{fill:#f9f9fb;}</style></defs><g id="Layer_2" data-name="Layer 2"><g id="Ads_Digital" data-name="Ads Digital"><circle class="cls-1" cx="26.57" cy="26.57" r="26.57"/><path class="cls-2" d="M11,22.8c0-.2.09-.41.14-.61A5.7,5.7,0,0,1,15.9,17.8l.26-.06c0-.85,0-1.7,0-2.55,0-.07-.12-.15-.2-.18a2.09,2.09,0,0,1,1-4,2.12,2.12,0,0,1,1.82,1.79A2.07,2.07,0,0,1,17.46,15c-.17.07-.24.13-.24.32q0,1.09,0,2.19c0,.17,0,.27.22.29A5.73,5.73,0,0,1,20.31,19l.09.05c1-.84,2-1.67,2.93-2.52a.47.47,0,0,0,.14-.28,5.73,5.73,0,0,1,11.33-.66.45.45,0,0,0,.21.29c1.18.58,2.36,1.15,3.56,1.71a.46.46,0,0,0,.37-.05,2,2,0,0,1,2.29,0,1.94,1.94,0,0,1,.91,2.05,2,2,0,0,1-1.51,1.68,2.07,2.07,0,0,1-2.56-2.48c0-.07,0-.15,0-.25L34.89,17A5.8,5.8,0,0,1,33,20.94c.51.67,1,1.34,1.5,2,.35.46.69.93,1.05,1.38a.45.45,0,0,0,.34.17,5.72,5.72,0,1,1-4.83,8.73L31,33.05c-.51.38-1,.79-1.52,1.12s-.6.54-.4,1.07a3.8,3.8,0,0,1,.15,1.17.32.32,0,0,0,.22.34l3.43,1.64a.48.48,0,0,0,.37,0,2.1,2.1,0,0,1,2.71.33,2.06,2.06,0,0,1,0,2.75,2.55,2.55,0,0,1-1.2.72H34L33.67,42a2.07,2.07,0,0,1-1.25-1.24,2.19,2.19,0,0,1,0-1.43L29,37.74c0,.1-.05.15-.07.21a5.7,5.7,0,0,1-3.75,3.95c-.35.12-.72.18-1.08.27h-1.4l-.1-.06a5.61,5.61,0,0,1-4.58-3.79A13.11,13.11,0,0,1,17.71,37H15.22c-.07,0-.18.13-.22.22a2.09,2.09,0,0,1-3.26.85A2.54,2.54,0,0,1,11,36.81v-.73c0-.06,0-.11.07-.17a2.08,2.08,0,0,1,4-.17.4.4,0,0,0,.29.17c.72,0,1.44,0,2.16,0,.25,0,.31-.09.35-.31A5.46,5.46,0,0,1,21.75,31a5.46,5.46,0,0,1,5.85,1.52,11.49,11.49,0,0,1,.86,1.07l1.82-1.36a.34.34,0,0,0,.16-.45,5.62,5.62,0,0,1,2.22-6.24,13.75,13.75,0,0,1,1.78-.95l-2.26-3a5.78,5.78,0,0,1-8.66-3.81l-2.38,2a.3.3,0,0,0,.05.1A5.85,5.85,0,0,1,22.41,23a.57.57,0,0,0,.21.33L25,25.19a.49.49,0,0,0,.67.06,2.07,2.07,0,0,1,2.95,2.31,2.05,2.05,0,0,1-2.39,1.58,2,2,0,0,1-1.66-2.22A1,1,0,0,0,24,25.73a2.23,2.23,0,0,1-.24-.19l-1.38-1.07-.1.39a5.69,5.69,0,0,1-6.42,4.25,5.56,5.56,0,0,1-4.67-4.3c-.07-.24-.12-.49-.17-.73Zm9.33,17.06c0-.13,0-.22,0-.31A1.56,1.56,0,0,1,21.94,38c1.06,0,2.11,0,3.17,0a1.54,1.54,0,0,1,1.44,1.26,5.46,5.46,0,0,1,0,.58,4.59,4.59,0,0,0,1.33-4.8A4.68,4.68,0,0,0,19,35,4.58,4.58,0,0,0,20.31,39.86Zm18.75-6.22a4.62,4.62,0,0,0,1.22-5.14,4.68,4.68,0,0,0-9,.86,4.52,4.52,0,0,0,1.45,4.23c.13-1.34.67-1.83,2-1.83.83,0,1.66,0,2.49,0a2.35,2.35,0,0,1,.88.19A1.62,1.62,0,0,1,39.06,33.64ZM13.55,26.86c0-.11,0-.19,0-.28A1.52,1.52,0,0,1,15.07,25a27.11,27.11,0,0,1,3.25,0,1.51,1.51,0,0,1,1.49,1.66l0,.17a4.58,4.58,0,0,0,1.27-4.93,4.68,4.68,0,0,0-4.49-3.16,4.74,4.74,0,0,0-4.42,3.39A4.6,4.6,0,0,0,13.55,26.86ZM32.3,20.12A4.61,4.61,0,0,0,33.53,15a4.67,4.67,0,0,0-9,.83A4.48,4.48,0,0,0,26,20.08c0-.06,0-.11,0-.16a1.57,1.57,0,0,1,1.59-1.65c1-.06,2.06,0,3.1,0a1.7,1.7,0,0,1,.69.19A1.6,1.6,0,0,1,32.3,20.12ZM23.47,39.06c-.49,0-1,0-1.46,0a.55.55,0,0,0-.62.62c0,.23,0,.47,0,.7a.31.31,0,0,0,.24.35,4.62,4.62,0,0,0,3.37.11c.55-.18.55-.19.55-.74v-.37c0-.46-.21-.67-.67-.67Zm5.69-19.75h0c-.5,0-1,0-1.49,0a.51.51,0,0,0-.56.57c0,.25,0,.51,0,.76s.07.26.23.33a4.64,4.64,0,0,0,3.34.12c.58-.19.58-.19.58-.78,0-.11,0-.22,0-.33,0-.47-.19-.67-.66-.68ZM16.72,26.07h0c-.51,0-1,0-1.55,0a.51.51,0,0,0-.54.56c0,.25,0,.51,0,.76a.31.31,0,0,0,.23.34,4.78,4.78,0,0,0,3.51.07c.3-.11.48-.25.42-.6a3,3,0,0,1,0-.52.57.57,0,0,0-.63-.62C17.68,26.06,17.2,26.07,16.72,26.07Zm19.22,8.79a4.35,4.35,0,0,0,1.85-.38c.09,0,.2-.14.21-.22a7.89,7.89,0,0,0,0-1,.46.46,0,0,0-.48-.45,4.87,4.87,0,0,0-.54,0H34.5c-.44,0-.62.19-.63.6a6.42,6.42,0,0,0,0,.76.43.43,0,0,0,.19.28A4.23,4.23,0,0,0,35.94,34.86Zm-.53,5.23a1,1,0,1,0-1,1A1.06,1.06,0,0,0,35.41,40.09ZM40.1,18.28a1,1,0,1,0,0,2,1,1,0,1,0,0-2ZM16.71,14.09a1,1,0,0,0,1-1,1.07,1.07,0,0,0-1-1,1.05,1.05,0,0,0-1,1.06A1,1,0,0,0,16.71,14.09ZM14.09,36.46a1.06,1.06,0,0,0-1-1.05A1.07,1.07,0,0,0,12,36.46a1,1,0,0,0,1,1A1,1,0,0,0,14.09,36.46ZM26.57,26.07a1,1,0,0,0,0,2.05,1,1,0,0,0,1.05-1A1,1,0,0,0,26.57,26.07Z"/><path class="cls-2" d="M21.38,34.85a2.08,2.08,0,1,1,2,2.13A2.09,2.09,0,0,1,21.38,34.85Zm2.08-1a1,1,0,1,0,0,2,1,1,0,1,0,0-2Z"/><path class="cls-2" d="M35.94,30.73A2.08,2.08,0,1,1,38,28.66,2.1,2.1,0,0,1,35.94,30.73Zm-1-2.06a1,1,0,0,0,1,1,1,1,0,1,0,0-2.07A1,1,0,0,0,34.91,28.67Z"/><path class="cls-2" d="M16.69,24a2.08,2.08,0,1,1,2.08-2A2.07,2.07,0,0,1,16.69,24Zm0-1a1,1,0,0,0,1-1,1,1,0,1,0-2.06,0A1,1,0,0,0,16.71,22.93Z"/><path class="cls-2" d="M29,17.21a2,2,0,0,1-1.94-2.16A2.08,2.08,0,1,1,29,17.21Zm.12-1a1,1,0,1,0-1-1A1,1,0,0,0,29.16,16.17Z"/></g></g></svg>