<svg xmlns="http://www.w3.org/2000/svg" xmlns:xlink="http://www.w3.org/1999/xlink" viewBox="0 0 256.76 283.32"><defs><style>.cls-1{fill:url(#linear-gradient);}.cls-2{fill:url(#linear-gradient-2);}.cls-3{fill:#65509c;}.cls-4{fill:url(#linear-gradient-3);}</style><linearGradient id="linear-gradient" x1="1078.7" y1="-938.21" x2="996.21" y2="-884.34" gradientTransform="translate(-925.81 1026.37)" gradientUnits="userSpaceOnUse"><stop offset="0" stop-color="#65509c"/><stop offset="1" stop-color="#ed6949"/></linearGradient><linearGradient id="linear-gradient-2" x1="1111.1" y1="-926.79" x2="1145.2" y2="-969.71" xlink:href="#linear-gradient"/><linearGradient id="linear-gradient-3" x1="1119.75" y1="-884.37" x2="1119.75" y2="-821.63" xlink:href="#linear-gradient"/></defs><g id="Layer_2" data-name="Layer 2"><g id="MK_Digital" data-name="MK Digital"><path class="cls-1" d="M0,84.77V259.43a23.9,23.9,0,0,0,23.89,23.89h0a23.89,23.89,0,0,0,23.89-23.89V148.16l42.58,41.62a26,26,0,0,0,36.67-.36l43.59-44.35a24.24,24.24,0,0,0-.39-34.38h0a24.24,24.24,0,0,0-33.6-.16l-28.78,27.39-69-69.21C24.54,54.34,0,64.48,0,84.77Z"/><path class="cls-2" d="M235.57,24.2a18,18,0,0,0-13.92,11.93,18.21,18.21,0,0,0-.91,7.29A19.89,19.89,0,0,1,209,63.54l-.36.15a20.08,20.08,0,0,1-10.86,1,23.1,23.1,0,0,0-9.73.45A23.55,23.55,0,1,0,216.8,93.56,23.33,23.33,0,0,0,217,83.37a17.94,17.94,0,0,1,.84-10.15,26.27,26.27,0,0,1,4.27-7.32c3.75-4.44,9.58-6.32,15.38-5.93a17.43,17.43,0,0,0,6.94-.93,18,18,0,0,0-8.9-34.84Z"/><circle class="cls-3" cx="193.94" cy="14.21" r="14.21"/><rect class="cls-4" x="171.49" y="146.11" width="44.9" height="135.69" rx="22.45"/></g></g></svg>