<svg xmlns="http://www.w3.org/2000/svg" xmlns:xlink="http://www.w3.org/1999/xlink" viewBox="0 0 225.1 87.61"><defs><style>.cls-1{fill:#644f9c;}.cls-2{fill:#ed6949;}.cls-3{fill:url(#linear-gradient);}.cls-4{fill:url(#linear-gradient-2);}.cls-5{fill:#65509c;}.cls-6{fill:url(#linear-gradient-3);}</style><linearGradient id="linear-gradient" x1="973.09" y1="-999.11" x2="947.58" y2="-982.45" gradientTransform="translate(-925.81 1026.37)" gradientUnits="userSpaceOnUse"><stop offset="0" stop-color="#65509c"/><stop offset="1" stop-color="#ed6949"/></linearGradient><linearGradient id="linear-gradient-2" x1="983.11" y1="-995.58" x2="993.65" y2="-1008.85" xlink:href="#linear-gradient"/><linearGradient id="linear-gradient-3" x1="985.78" y1="-982.46" x2="985.78" y2="-963.06" xlink:href="#linear-gradient"/></defs><g id="Layer_2" data-name="Layer 2"><g id="MK_Digital" data-name="MK Digital"><path class="cls-1" d="M81.34,71.15H78V79.7h-1.4V71.15H73.35V69.92h8Z"/><path class="cls-1" d="M86.76,69.92h5.91v1.23H88.15V74.1h4.13v1.23H88.15v3.14h4.59V79.7h-6Z"/><path class="cls-1" d="M105.76,79.28a2.81,2.81,0,0,1-1.18.47,8,8,0,0,1-1.51.13,5.32,5.32,0,0,1-1.78-.3,3.93,3.93,0,0,1-1.48-.92,4.32,4.32,0,0,1-1-1.58,6,6,0,0,1-.38-2.27,5.81,5.81,0,0,1,.42-2.33,4.45,4.45,0,0,1,1.09-1.57,4.14,4.14,0,0,1,1.51-.89,5.12,5.12,0,0,1,1.66-.28,9,9,0,0,1,1.51.1,5.08,5.08,0,0,1,1,.25l-.31,1.2A5.19,5.19,0,0,0,103.2,71a3.85,3.85,0,0,0-1.22.2,2.87,2.87,0,0,0-1.06.66,3.15,3.15,0,0,0-.75,1.19,5,5,0,0,0-.28,1.79,4.72,4.72,0,0,0,.27,1.67,3.28,3.28,0,0,0,.73,1.2,3,3,0,0,0,1.1.73,3.94,3.94,0,0,0,1.39.24,5.2,5.2,0,0,0,1.19-.12,3.78,3.78,0,0,0,.85-.32Z"/><path class="cls-1" d="M117.83,75.33h-5V79.7h-1.4V69.92h1.4V74.1h5V69.92h1.39V79.7h-1.39Z"/><path class="cls-1" d="M127.66,73.48l-.84-1.36h0l.17,1.36V79.7h-1.32V69.78h.79l5,6.35.8,1.29h.07l-.17-1.29V69.92h1.31v9.92h-.78Z"/><path class="cls-1" d="M139.37,74.81a7,7,0,0,1,.3-2.14,4.48,4.48,0,0,1,.87-1.6,3.64,3.64,0,0,1,1.38-1,4.69,4.69,0,0,1,1.85-.34,4.62,4.62,0,0,1,1.93.37,3.8,3.8,0,0,1,1.39,1,4.41,4.41,0,0,1,.82,1.6,7.51,7.51,0,0,1,.27,2.07,7.11,7.11,0,0,1-.3,2.15,4.44,4.44,0,0,1-.87,1.59,3.76,3.76,0,0,1-1.39,1,5.24,5.24,0,0,1-3.79,0,3.62,3.62,0,0,1-1.37-1,4.49,4.49,0,0,1-.82-1.6A7.41,7.41,0,0,1,139.37,74.81Zm1.48,0A6.48,6.48,0,0,0,141,76.3a3.87,3.87,0,0,0,.54,1.22,2.56,2.56,0,0,0,.9.83,2.72,2.72,0,0,0,1.31.3,2.65,2.65,0,0,0,2.14-.93,4.42,4.42,0,0,0,.79-2.91,5.81,5.81,0,0,0-.17-1.47,3.86,3.86,0,0,0-.53-1.22,2.71,2.71,0,0,0-.91-.84,2.91,2.91,0,0,0-3.45.63A4.44,4.44,0,0,0,140.85,74.81Z"/><path class="cls-1" d="M160.55,79.7h-6.4V69.92h1.4v8.55h5Z"/><path class="cls-1" d="M164.61,74.81a7,7,0,0,1,.3-2.14,4.48,4.48,0,0,1,.87-1.6,3.81,3.81,0,0,1,1.38-1,4.76,4.76,0,0,1,1.85-.34,4.66,4.66,0,0,1,1.94.37,3.85,3.85,0,0,1,1.38,1,4.43,4.43,0,0,1,.83,1.6,7.51,7.51,0,0,1,.27,2.07,7.11,7.11,0,0,1-.3,2.15,4.44,4.44,0,0,1-.87,1.59,3.93,3.93,0,0,1-1.39,1,4.78,4.78,0,0,1-1.86.34,4.66,4.66,0,0,1-1.94-.37,3.7,3.7,0,0,1-1.37-1,4.47,4.47,0,0,1-.81-1.6A7.05,7.05,0,0,1,164.61,74.81Zm1.48,0a6,6,0,0,0,.18,1.49,3.86,3.86,0,0,0,.53,1.22,2.59,2.59,0,0,0,.91.83,3,3,0,0,0,3.45-.63,4.42,4.42,0,0,0,.79-2.91,5.8,5.8,0,0,0-.18-1.47,3.64,3.64,0,0,0-.53-1.22,2.68,2.68,0,0,0-.9-.84,2.93,2.93,0,0,0-3.46.63A4.5,4.5,0,0,0,166.09,74.81Z"/><path class="cls-1" d="M183,74.77h3.66v4.32a2.42,2.42,0,0,1-.6.34,4.27,4.27,0,0,1-.74.24,7.43,7.43,0,0,1-.82.16,7.86,7.86,0,0,1-.83,0,5.58,5.58,0,0,1-1.86-.3,4,4,0,0,1-1.5-.93,4.5,4.5,0,0,1-1-1.58,6.42,6.42,0,0,1-.36-2.26,5.65,5.65,0,0,1,.44-2.32,4.69,4.69,0,0,1,1.14-1.58A4.51,4.51,0,0,1,182.1,70a5.37,5.37,0,0,1,1.71-.28,9.25,9.25,0,0,1,1.53.11,6,6,0,0,1,1,.25L186,71.29a5.5,5.5,0,0,0-2.1-.32,4.18,4.18,0,0,0-1.25.2,2.89,2.89,0,0,0-1.12.65,3.2,3.2,0,0,0-.8,1.18,4.59,4.59,0,0,0-.31,1.81,5.19,5.19,0,0,0,.26,1.72,3.18,3.18,0,0,0,.72,1.2,2.8,2.8,0,0,0,1.09.7,4.06,4.06,0,0,0,1.37.22,4.33,4.33,0,0,0,.89-.09,2.92,2.92,0,0,0,.74-.25V75.86L183,75.6Z"/><path class="cls-1" d="M193.48,70.84h-1.12v-.92H196v.92h-1.12v7.94H196v.92h-3.63v-.92h1.12Z"/><path class="cls-1" d="M202.11,69.92H208v1.23h-4.51V74.1h4.12v1.23h-4.12v3.14h4.58V79.7h-6Z"/><path class="cls-1" d="M219,77.12a1.11,1.11,0,0,0-.38-.9,3.13,3.13,0,0,0-1-.58c-.38-.16-.79-.31-1.23-.46a6.79,6.79,0,0,1-1.23-.55,2.9,2.9,0,0,1-.94-.87,2.26,2.26,0,0,1-.38-1.38,2.36,2.36,0,0,1,.87-1.91,3.75,3.75,0,0,1,2.49-.73,10.06,10.06,0,0,1,1.72.14,4.55,4.55,0,0,1,1.23.36l-.43,1.18a4.05,4.05,0,0,0-1.05-.31,8.08,8.08,0,0,0-1.54-.14,2.15,2.15,0,0,0-1.42.4,1.19,1.19,0,0,0-.48.93,1.11,1.11,0,0,0,.38.87,3.76,3.76,0,0,0,1,.59c.38.17.79.33,1.23.49a7,7,0,0,1,1.23.59,3.27,3.27,0,0,1,1,.86A2.14,2.14,0,0,1,220.4,77a2.83,2.83,0,0,1-.25,1.18,2.48,2.48,0,0,1-.73.91,3.36,3.36,0,0,1-1.15.58,5,5,0,0,1-1.52.2,9.53,9.53,0,0,1-1.93-.17,6,6,0,0,1-1.2-.37l.46-1.22a5,5,0,0,0,1.06.35,6.3,6.3,0,0,0,1.56.18,4.29,4.29,0,0,0,.9-.09,2.58,2.58,0,0,0,.74-.27,1.5,1.5,0,0,0,.49-.48A1.38,1.38,0,0,0,219,77.12Z"/><path class="cls-2" d="M72.94,49.56a3.08,3.08,0,0,1,.32-1.47,2.68,2.68,0,0,1,.86-.94,3.68,3.68,0,0,1,1.22-.49,6.46,6.46,0,0,1,1.4-.15,10.41,10.41,0,0,1,1.87.14,2.25,2.25,0,0,1,1.2.6,3.23,3.23,0,0,1,.73,1.4,24.2,24.2,0,0,1,.54,2.54l1.44,8.86c0,.07,0,.19.07.35a4.15,4.15,0,0,0,.11.48,3.17,3.17,0,0,0,.13.43c0,.13.08.19.12.19s.08-.06.13-.19a2.17,2.17,0,0,0,.14-.43c0-.16.07-.31.1-.47a1.55,1.55,0,0,0,.06-.28l1.39-9a18.28,18.28,0,0,1,.52-2.48A3.32,3.32,0,0,1,86,47.23a2.29,2.29,0,0,1,1.22-.58,11.11,11.11,0,0,1,1.92-.14,5.17,5.17,0,0,1,2.76.67A2.5,2.5,0,0,1,93,49.48v16a.24.24,0,0,1-.27.27H89.4a.24.24,0,0,1-.27-.27V50.85a1.76,1.76,0,0,0,0-.23c0-.12-.07-.17-.16-.17a.24.24,0,0,0-.2.09l-.12.2a1,1,0,0,0-.06.24c0,.13-.06.26-.08.4s-.06.29-.08.43-.05.25-.07.32c-.11.45-.21.92-.31,1.41s-.24,1.14-.41,2-.4,1.85-.66,3.1-.6,2.87-1,4.83a3,3,0,0,1-.27.83,2.44,2.44,0,0,1-.52.73,2.57,2.57,0,0,1-.9.52,4.3,4.3,0,0,1-1.41.2,3.56,3.56,0,0,1-1.28-.19,2.44,2.44,0,0,1-.81-.47,1.61,1.61,0,0,1-.48-.63,3.32,3.32,0,0,1-.24-.66L77.33,51a1.86,1.86,0,0,1-.09-.31c0-.17-.11-.26-.18-.28h-.13c-.07,0-.11.06-.11.19V65.43a.24.24,0,0,1-.27.27H73.21a.24.24,0,0,1-.27-.27Z"/><path class="cls-2" d="M100.1,48.09a1.83,1.83,0,0,1,1.18-1.31,8,8,0,0,1,2.33-.27,8.4,8.4,0,0,1,2.39.27,1.8,1.8,0,0,1,1.19,1.31l5.38,17.45c0,.11-.06.16-.19.16h-3.5a.33.33,0,0,1-.35-.24l-1.42-4.63a.33.33,0,0,0-.34-.27h-6.29a.34.34,0,0,0-.35.3l-1.42,4.57a.34.34,0,0,1-.35.27H94.88c-.14,0-.21,0-.21-.16Zm3.83,2.38a2.52,2.52,0,0,0-.14-.39.18.18,0,0,0-.18-.09q-.14,0-.3.48l-1.87,6.1s0,.07,0,.08a.14.14,0,0,0,0,.06c0,.12.07.18.22.18h4c.15,0,.22-.06.22-.18a.14.14,0,0,0,0-.06.54.54,0,0,1,0-.08Z"/><path class="cls-2" d="M119.23,57.72a8.18,8.18,0,0,1-1.77-.21,4.21,4.21,0,0,1-1.73-.83,3.31,3.31,0,0,1-.76-.9,5.19,5.19,0,0,1-.51-1.12,7.36,7.36,0,0,1-.3-1.23,8.73,8.73,0,0,1-.09-1.24v-.51a2.81,2.81,0,0,1,.05-.49,5,5,0,0,1,1.74-3.61,6.49,6.49,0,0,1,1.13-.72,2.83,2.83,0,0,1,1.31-.35h8.86a.24.24,0,0,1,.26.27v2.94a.24.24,0,0,1-.26.27h-7.74a.88.88,0,0,0-.68.34,2.39,2.39,0,0,0-.44.62,1.59,1.59,0,0,0-.16.54,4.84,4.84,0,0,0,0,.53c0,.29,0,.58,0,.89a1.39,1.39,0,0,0,.38.8,1.29,1.29,0,0,0,.81.35c.35,0,.73,0,1.14,0h3a7.31,7.31,0,0,1,1.74.23,4.17,4.17,0,0,1,1.68.87,3.24,3.24,0,0,1,.77.91,7,7,0,0,1,.51,1.15,7.66,7.66,0,0,1,.28,1.28,11.74,11.74,0,0,1,.08,1.29v.56a1.76,1.76,0,0,1-.06.46,5.34,5.34,0,0,1-1.71,3.74,6.89,6.89,0,0,1-1.11.74,2.6,2.6,0,0,1-1.24.36h-9.74a.24.24,0,0,1-.27-.27V62.49a.24.24,0,0,1,.27-.27h8.61a.87.87,0,0,0,.7-.39,3.53,3.53,0,0,0,.43-.71,2.07,2.07,0,0,0,.16-.56c0-.18,0-.36,0-.56a7,7,0,0,0,0-.9,1.54,1.54,0,0,0-.38-.84,1.47,1.47,0,0,0-.76-.42,5,5,0,0,0-1.16-.12Z"/><path class="cls-2" d="M138.72,65.43a.24.24,0,0,1-.27.27H135.1c-.18,0-.26-.09-.26-.27V50.26a.24.24,0,0,0-.27-.27h-4.36a.24.24,0,0,1-.27-.27V46.78a.24.24,0,0,1,.27-.27h13.13a.24.24,0,0,1,.27.27v2.94a.24.24,0,0,1-.27.27H139c-.18,0-.26.09-.26.27Z"/><path class="cls-2" d="M145.19,50.61a4.34,4.34,0,0,1,1-3A3.59,3.59,0,0,1,149,46.51h9.08c.23,0,.34.09.34.27v2.94a.24.24,0,0,1-.26.27h-8.86q-.27,0-.27.3v3.63a.24.24,0,0,0,.27.27h8.21a.24.24,0,0,1,.27.27v3.08c0,.18-.09.26-.27.26h-8.21a.24.24,0,0,0-.27.27V62a.24.24,0,0,0,.27.27h8.86a.24.24,0,0,1,.26.27v2.94a.24.24,0,0,1-.26.27H147.84a2,2,0,0,1-1-.26,3.2,3.2,0,0,1-.86-.65,3.37,3.37,0,0,1-.6-.9,2.39,2.39,0,0,1-.23-1Z"/><path class="cls-2" d="M160.92,46.51h10a3.79,3.79,0,0,1,1.47.3,4.11,4.11,0,0,1,1.42,1,5.58,5.58,0,0,1,1.28,3.8v.62a7.66,7.66,0,0,1-.56,3.42,10.13,10.13,0,0,1-.77,1,4.32,4.32,0,0,1-1.1.82.3.3,0,0,0-.07.08.25.25,0,0,0,0,.13.23.23,0,0,0,0,.11,6.64,6.64,0,0,1,.87,1.4c.17.4.32.82.47,1.25L175.35,65a.91.91,0,0,0,.2.39.56.56,0,0,1,.15.22c0,.09-.06.14-.16.14h-3.7c-.1,0-.22-.1-.35-.28a2.32,2.32,0,0,1-.24-.47l-1.65-4.68c-.26-1-.76-1.56-1.53-1.66H164.8a.24.24,0,0,0-.26.27v6.55a.24.24,0,0,1-.27.27h-3.35a.24.24,0,0,1-.26-.27V46.78A.24.24,0,0,1,160.92,46.51ZM164.8,50a.24.24,0,0,0-.26.27v4.36c0,.18.1.27.29.27h4.85a1.34,1.34,0,0,0,.82-.38,2,2,0,0,0,.58-.93,4.53,4.53,0,0,0,.2-1.37,4.7,4.7,0,0,0,0-.68,1.86,1.86,0,0,0-.17-.58c-.29-.58-.63-.91-1-1Z"/><path class="cls-2" d="M177.94,46.51h3.35a.24.24,0,0,1,.27.27V65.43a.24.24,0,0,1-.27.27h-3.35c-.18,0-.26-.09-.26-.27V46.78C177.68,46.6,177.76,46.51,177.94,46.51Zm13.14.08c0,.06,0,.15-.05.27l-5,8.54a1.61,1.61,0,0,0-.17.26,1,1,0,0,0-.12.27.74.74,0,0,0,.09.27,2.67,2.67,0,0,0,.15.27l5.19,8.88c.07.13.09.21.05.27a.16.16,0,0,1-.13.08H187a.19.19,0,0,1-.16-.08l-.08-.14L182.6,58a4.8,4.8,0,0,1-.8-2,1.79,1.79,0,0,1,0-.23c0-.08.06-.2.11-.35a3.84,3.84,0,0,1,.24-.55l.43-.83,4-7.3.08-.14a.19.19,0,0,1,.16-.08H191A.16.16,0,0,1,191.08,46.59Z"/><path class="cls-2" d="M193.28,50.61a4.34,4.34,0,0,1,1-3,3.58,3.58,0,0,1,2.86-1.14h9.07c.23,0,.35.09.35.27v2.94a.24.24,0,0,1-.27.27h-8.86c-.17,0-.26.1-.26.3v3.63a.24.24,0,0,0,.26.27h8.22a.24.24,0,0,1,.27.27v3.08c0,.18-.09.26-.27.26h-8.22a.24.24,0,0,0-.26.27V62a.24.24,0,0,0,.26.27h8.86a.24.24,0,0,1,.27.27v2.94a.24.24,0,0,1-.27.27H195.93a2,2,0,0,1-1-.26,3.15,3.15,0,0,1-.85-.65,3.41,3.41,0,0,1-.61-.9,2.38,2.38,0,0,1-.22-1Z"/><path class="cls-2" d="M215.11,65.7c-.27,0-.4-.22-.4-.67v-6a3,3,0,0,1-.68-.32,1.91,1.91,0,0,1-.71-.75l-5.14-11.08c-.14-.26-.1-.4.13-.4H212a.47.47,0,0,1,.45.32l3.8,8.24a.45.45,0,0,0,.43.27.36.36,0,0,0,.25-.06l.18-.21,3.66-8.18c.11-.25.26-.38.46-.38h3.61c.13,0,.2,0,.23.12a.39.39,0,0,1,0,.26l-5,11.1a3.25,3.25,0,0,1-.72.75,2.16,2.16,0,0,1-.65.32v6c0,.45-.12.67-.37.67Z"/><path class="cls-3" d="M0,26.21v54a7.39,7.39,0,0,0,7.39,7.39h0a7.39,7.39,0,0,0,7.39-7.39V45.82L27.94,58.69a8,8,0,0,0,11.34-.12L52.76,44.86a7.49,7.49,0,0,0-.12-10.63h0a7.5,7.5,0,0,0-10.39,0l-8.9,8.47L12,21.25A7,7,0,0,0,0,26.21Z"/><path class="cls-4" d="M72.85,7.48a5.58,5.58,0,0,0-4.59,5.95,6.15,6.15,0,0,1-3.64,6.22l-.11,0a6.12,6.12,0,0,1-3.36.31,7,7,0,0,0-3,.14,7.27,7.27,0,1,0,9,5.64,5.61,5.61,0,0,1,.25-3.14,8,8,0,0,1,1.33-2.26,5.58,5.58,0,0,1,4.75-1.83,5.69,5.69,0,0,0,2.15-.29A5.58,5.58,0,0,0,72.85,7.48Z"/><circle class="cls-5" cx="59.97" cy="4.39" r="4.39"/><rect class="cls-6" x="53.03" y="45.18" width="13.88" height="41.96" rx="6.94"/></g></g></svg>