<svg xmlns="http://www.w3.org/2000/svg" viewBox="0 0 407.55 160.37"><defs><style>.cls-1,.cls-2{fill:#fff;}.cls-2{font-size:23.74px;font-family:PTSansPro-Regular, PT Sans Pro;letter-spacing:0.44em;}.cls-3{letter-spacing:0.36em;}.cls-4{letter-spacing:0.37em;}.cls-5{letter-spacing:0.39em;}</style></defs><g id="Layer_2" data-name="Layer 2"><g id="MK_Digital_HC" data-name="MK Digital HC"><path class="cls-1" d="M0,48v98.79a13.51,13.51,0,0,0,13.51,13.51h0A13.51,13.51,0,0,0,27,146.74V83.8l24.08,23.54a14.69,14.69,0,0,0,20.74-.2L96.51,82.06a13.71,13.71,0,0,0-.23-19.45h0a13.7,13.7,0,0,0-19-.09L61,78,22,38.86A12.87,12.87,0,0,0,0,48Z"/><path class="cls-1" d="M133.24,13.69a10.22,10.22,0,0,0-8.39,10.87,11.22,11.22,0,0,1-6.66,11.38L118,36a11.39,11.39,0,0,1-6.15.56,13.08,13.08,0,0,0-5.5.25,13.32,13.32,0,1,0,16.28,16.09,13.14,13.14,0,0,0,.14-5.77,10.13,10.13,0,0,1,.48-5.74,14.82,14.82,0,0,1,2.41-4.14,10.33,10.33,0,0,1,8.7-3.35,10,10,0,0,0,3.93-.52,10.2,10.2,0,0,0-5-19.71Z"/><circle class="cls-1" cx="109.7" cy="8.04" r="8.04"/><rect class="cls-1" x="97" y="82.64" width="25.39" height="76.75" rx="12.7"/><path class="cls-1" d="M151.83,96.16a5.08,5.08,0,0,1,.53-2.43,4.19,4.19,0,0,1,1.41-1.54,6,6,0,0,1,2-.82,11.14,11.14,0,0,1,2.32-.24,17.42,17.42,0,0,1,3.1.22,3.67,3.67,0,0,1,2,1,5.33,5.33,0,0,1,1.22,2.32,39.83,39.83,0,0,1,.88,4.2l2.39,14.62c0,.12.06.31.11.58a7.43,7.43,0,0,0,.17.79c.08.27.15.51.23.71s.13.31.19.31.14-.1.23-.31a4.61,4.61,0,0,0,.22-.71c.06-.26.11-.52.17-.77a3,3,0,0,0,.09-.46l2.3-14.94a29.91,29.91,0,0,1,.86-4.08,5.21,5.21,0,0,1,1.24-2.28,3.73,3.73,0,0,1,2-1,18.34,18.34,0,0,1,3.18-.22,8.52,8.52,0,0,1,4.55,1.1A4.13,4.13,0,0,1,185,96v26.34a.39.39,0,0,1-.44.44H179a.39.39,0,0,1-.44-.44V98.29a2.8,2.8,0,0,0,0-.38c0-.19-.12-.29-.27-.29a.36.36,0,0,0-.33.16,2.63,2.63,0,0,0-.2.33,2.6,2.6,0,0,0-.11.4c0,.2-.09.42-.13.66s-.09.47-.13.71-.09.41-.11.53c-.18.73-.35,1.51-.51,2.32s-.39,1.88-.69,3.22-.65,3-1.08,5.13-1,4.73-1.7,8a6.08,6.08,0,0,1-.44,1.37,4.16,4.16,0,0,1-.86,1.19,4.09,4.09,0,0,1-1.48.87,7.1,7.1,0,0,1-2.35.33,6,6,0,0,1-2.1-.31,4.41,4.41,0,0,1-1.34-.77,3.13,3.13,0,0,1-.8-1,6.23,6.23,0,0,1-.4-1.11l-4.41-21a3.11,3.11,0,0,1-.16-.51c-.07-.28-.17-.43-.29-.46h-.22c-.12,0-.17.1-.17.31v24.48a.39.39,0,0,1-.45.44h-5.52a.39.39,0,0,1-.44-.44Z"/><path class="cls-1" d="M196.68,93.73a3,3,0,0,1,1.94-2.16,13.13,13.13,0,0,1,3.84-.44,13.85,13.85,0,0,1,4,.44,3,3,0,0,1,2,2.16l8.88,28.81c0,.18-.11.27-.31.27h-5.79a.55.55,0,0,1-.58-.4l-2.34-7.64a.56.56,0,0,0-.57-.45H197.3a.58.58,0,0,0-.58.49l-2.34,7.56a.56.56,0,0,1-.58.44h-5.74c-.24,0-.35-.09-.35-.27ZM203,97.67a2.58,2.58,0,0,0-.22-.64.32.32,0,0,0-.31-.16c-.14,0-.3.27-.48.8l-3.09,10.07a.23.23,0,0,1,0,.13.29.29,0,0,0,0,.09c0,.21.12.31.36.31h6.58c.23,0,.35-.1.35-.31a.29.29,0,0,0,0-.09.39.39,0,0,1,0-.13Z"/><path class="cls-1" d="M228.27,109.64a13.81,13.81,0,0,1-2.94-.35,7,7,0,0,1-2.85-1.37,5.63,5.63,0,0,1-1.26-1.48,9.78,9.78,0,0,1-.84-1.86,11.75,11.75,0,0,1-.48-2,13.09,13.09,0,0,1-.16-2.06v-.83a3.63,3.63,0,0,1,.09-.8,8.22,8.22,0,0,1,2.87-6,11.1,11.1,0,0,1,1.86-1.19,4.68,4.68,0,0,1,2.16-.57h14.63a.39.39,0,0,1,.44.44v4.86a.39.39,0,0,1-.44.44H228.58a1.55,1.55,0,0,0-1.13.55,4.24,4.24,0,0,0-.73,1,2.51,2.51,0,0,0-.26.89,8.65,8.65,0,0,0-.05.88,12.3,12.3,0,0,0,.09,1.46,2.32,2.32,0,0,0,.62,1.32,2.11,2.11,0,0,0,1.35.58,18.09,18.09,0,0,0,1.88.09h4.94a11.92,11.92,0,0,1,2.88.37,7,7,0,0,1,2.78,1.44,5.41,5.41,0,0,1,1.26,1.5,9.87,9.87,0,0,1,.84,1.9,11.42,11.42,0,0,1,.46,2.12,17.53,17.53,0,0,1,.14,2.12v.93a3.08,3.08,0,0,1-.09.75,8.92,8.92,0,0,1-2.83,6.19,12.35,12.35,0,0,1-1.83,1.21,4.29,4.29,0,0,1-2.06.6H220.76a.39.39,0,0,1-.44-.44v-4.86c0-.3.14-.45.44-.45H235a1.39,1.39,0,0,0,1.15-.64,5.08,5.08,0,0,0,.71-1.17,2.87,2.87,0,0,0,.27-.93c0-.29,0-.6,0-.92a12.76,12.76,0,0,0-.09-1.48,2.54,2.54,0,0,0-.62-1.4,2.39,2.39,0,0,0-1.26-.68,8.27,8.27,0,0,0-1.92-.2Z"/><path class="cls-1" d="M260.44,122.37a.39.39,0,0,1-.45.44h-5.52a.39.39,0,0,1-.44-.44V97.31a.39.39,0,0,0-.44-.44h-7.21a.39.39,0,0,1-.44-.44V91.57a.39.39,0,0,1,.44-.44h21.7a.39.39,0,0,1,.44.44v4.86a.39.39,0,0,1-.44.44h-7.2a.39.39,0,0,0-.44.44Z"/><path class="cls-1" d="M271.13,97.89A7.16,7.16,0,0,1,272.76,93a5.91,5.91,0,0,1,4.73-1.88h15c.38,0,.57.14.57.44v4.86a.39.39,0,0,1-.44.44H278c-.3,0-.44.16-.44.49v6a.39.39,0,0,0,.44.44h13.56a.39.39,0,0,1,.44.44v5.08a.38.38,0,0,1-.44.44H278c-.3,0-.44.15-.44.45v6.4a.38.38,0,0,0,.44.44H292.6c.3,0,.44.15.44.45v4.86a.39.39,0,0,1-.44.44H275.5a3.38,3.38,0,0,1-1.59-.42,5.3,5.3,0,0,1-1.41-1.08,5.85,5.85,0,0,1-1-1.48,4,4,0,0,1-.37-1.66Z"/><path class="cls-1" d="M297.11,91.13h16.44a6.49,6.49,0,0,1,2.43.48,7.22,7.22,0,0,1,2.34,1.68q2,2.08,2.12,6.28v1a12.81,12.81,0,0,1-.93,5.66,15.35,15.35,0,0,1-1.28,1.61,6.67,6.67,0,0,1-1.81,1.35.81.81,0,0,0-.11.13.32.32,0,0,0-.07.22.41.41,0,0,0,.05.18,11.34,11.34,0,0,1,1.43,2.32c.28.66.54,1.35.77,2l2.43,7.47a1.47,1.47,0,0,0,.34.64.93.93,0,0,1,.24.38c0,.14-.09.22-.27.22h-6.09c-.18,0-.37-.16-.58-.47a3,3,0,0,1-.4-.77l-2.73-7.73c-.42-1.65-1.26-2.56-2.52-2.74h-5.39a.39.39,0,0,0-.45.44v10.83a.39.39,0,0,1-.44.44h-5.52a.39.39,0,0,1-.44-.44V91.57A.38.38,0,0,1,297.11,91.13Zm6.41,5.74a.39.39,0,0,0-.45.44v7.21c0,.29.17.44.49.44h8a2.27,2.27,0,0,0,1.37-.62,3.34,3.34,0,0,0,.95-1.55,7.23,7.23,0,0,0,.33-2.25,7.87,7.87,0,0,0-.07-1.13,2.84,2.84,0,0,0-.29-1c-.47-1-1-1.5-1.67-1.59Z"/><path class="cls-1" d="M325.21,91.13h5.52a.38.38,0,0,1,.44.44v30.8a.39.39,0,0,1-.44.44h-5.52a.39.39,0,0,1-.44-.44V91.57A.39.39,0,0,1,325.21,91.13Zm21.7.13c0,.09,0,.24-.09.44l-8.22,14.1a2.12,2.12,0,0,0-.29.44,1.46,1.46,0,0,0-.2.44,1.07,1.07,0,0,0,.16.44,3,3,0,0,0,.24.44l8.57,14.67q.18.31.09.45a.27.27,0,0,1-.22.13h-6.72a.3.3,0,0,1-.26-.13,1.14,1.14,0,0,1-.13-.23l-6.94-12.37a8,8,0,0,1-1.33-3.31,1.81,1.81,0,0,1,.05-.38c0-.13.09-.32.17-.57a8.55,8.55,0,0,1,.4-.91c.18-.35.41-.81.71-1.37l6.67-12.06a2,2,0,0,1,.13-.22.3.3,0,0,1,.27-.13h6.71A.27.27,0,0,1,346.91,91.26Z"/><path class="cls-1" d="M350.53,97.89A7.16,7.16,0,0,1,352.16,93a5.91,5.91,0,0,1,4.73-1.88h15c.38,0,.57.14.57.44v4.86a.39.39,0,0,1-.44.44H357.38c-.3,0-.44.16-.44.49v6a.39.39,0,0,0,.44.44h13.56a.39.39,0,0,1,.44.44v5.08a.38.38,0,0,1-.44.44H357.38c-.3,0-.44.15-.44.45v6.4a.38.38,0,0,0,.44.44H372c.3,0,.44.15.44.45v4.86a.39.39,0,0,1-.44.44H354.9a3.38,3.38,0,0,1-1.59-.42,5.3,5.3,0,0,1-1.41-1.08,5.6,5.6,0,0,1-1-1.48,4,4,0,0,1-.37-1.66Z"/><path class="cls-1" d="M386.58,122.81q-.66,0-.66-1.11v-9.85a6,6,0,0,1-1.13-.53,3.35,3.35,0,0,1-1.17-1.24l-8.48-18.29c-.24-.44-.16-.66.22-.66h6.1a.76.76,0,0,1,.75.53l6.27,13.61a.75.75,0,0,0,.71.44.6.6,0,0,0,.42-.11l.29-.33L396,91.75c.18-.42.43-.62.75-.62h6c.2,0,.33.06.37.2a.56.56,0,0,1,0,.42l-8.22,18.33a5.27,5.27,0,0,1-1.19,1.24,3.74,3.74,0,0,1-1.06.53v9.85c0,.74-.21,1.11-.62,1.11Z"/><text class="cls-2" transform="translate(151.41 154.56)">ADS<tspan class="cls-3" x="73" y="0">.</tspan><tspan x="86.56" y="0" xml:space="preserve"> DIGI</tspan><tspan class="cls-4" x="188.4" y="0">T</tspan><tspan x="210.31" y="0">A</tspan><tspan class="cls-5" x="234.53" y="0">L</tspan></text></g></g></svg>