<svg width="29" height="29" xmlns="http://www.w3.org/2000/svg" xmlns:xlink="http://www.w3.org/1999/xlink" overflow="hidden"><defs><clipPath id="clip0"><rect x="248" y="617" width="29" height="29"/></clipPath></defs><g clip-path="url(#clip0)" transform="translate(-248 -617)"><path d="M254.042 632.708 266.125 632.708 262.15 636.684C261.676 637.154 261.673 637.919 262.143 638.393 262.145 638.395 262.147 638.397 262.15 638.4 262.621 638.868 263.382 638.868 263.853 638.4L269.037 633.204C269.491 632.753 269.747 632.14 269.75 631.5L269.75 631.5C269.744 630.864 269.488 630.257 269.037 629.808L263.853 624.612C263.38 624.142 262.614 624.145 262.144 624.619 261.673 625.092 261.676 625.858 262.15 626.328L266.125 630.292 254.042 630.292C253.374 630.292 252.833 630.833 252.833 631.5 252.833 632.167 253.374 632.708 254.042 632.708Z" fill="#FFFFFF"/></g></svg>