<svg width="29" height="29" xmlns="http://www.w3.org/2000/svg" xmlns:xlink="http://www.w3.org/1999/xlink" overflow="hidden"><defs><clipPath id="clip0"><rect x="245" y="485" width="29" height="29"/></clipPath></defs><g clip-path="url(#clip0)" transform="translate(-245 -485)"><path d="M251.042 500.708 263.125 500.708 259.15 504.684C258.676 505.154 258.673 505.919 259.143 506.393 259.145 506.395 259.147 506.397 259.15 506.4 259.621 506.868 260.382 506.868 260.853 506.4L266.037 501.204C266.491 500.753 266.747 500.14 266.75 499.5L266.75 499.5C266.744 498.864 266.488 498.257 266.037 497.808L260.853 492.612C260.38 492.142 259.614 492.145 259.144 492.619 258.673 493.092 258.676 493.858 259.15 494.328L263.125 498.292 251.042 498.292C250.374 498.292 249.833 498.833 249.833 499.5 249.833 500.167 250.374 500.708 251.042 500.708Z" fill="#65509C"/></g></svg>