<svg width="14" height="15" xmlns="http://www.w3.org/2000/svg" xmlns:xlink="http://www.w3.org/1999/xlink" overflow="hidden"><defs><clipPath id="clip0"><rect x="634" y="632" width="14" height="15"/></clipPath></defs><g clip-path="url(#clip0)" transform="translate(-634 -632)"><path d="M10.0158 14C9.86078 14.0009 9.71174 13.94 9.60167 13.8308L4.83583 9.065C3.69536 7.92738 3.69303 6.08067 4.83062 4.94021 4.83236 4.93847 4.83409 4.93674 4.83583 4.935L9.60167 0.169167C9.83039-0.0595712 10.2013-0.0595712 10.43 0.169167 10.6587 0.397904 10.6587 0.768763 10.43 0.9975L5.66417 5.76333C4.98178 6.44659 4.98178 7.55341 5.66417 8.23667L10.43 13.0025C10.6587 13.2294 10.6602 13.5987 10.4334 13.8274 10.4323 13.8286 10.4311 13.8297 10.43 13.8308 10.3199 13.94 10.1709 14.0009 10.0158 14Z" fill="#FFFFFF" transform="matrix(-1 1.22465e-16 -1.31212e-16 -1.07143 648 647)"/></g></svg>