<svg xmlns="http://www.w3.org/2000/svg" xmlns:xlink="http://www.w3.org/1999/xlink" viewBox="0 0 696.84 495.69"><defs><style>.cls-1{fill:#fff;}.cls-2{fill:url(#linear-gradient);}.cls-3{fill:url(#linear-gradient-2);}.cls-4{fill:#6258a6;}.cls-5{fill:url(#linear-gradient-3);}.cls-6{font-size:22.43px;fill:#3d3336;font-family:Axiforma-Black, Axiforma;font-weight:800;}.cls-7{letter-spacing:-0.03em;}.cls-10,.cls-11,.cls-12,.cls-13,.cls-14,.cls-15,.cls-8,.cls-9{fill:none;stroke:#fff;stroke-linecap:round;stroke-miterlimit:10;stroke-width:2px;}.cls-9{stroke-dasharray:10.66 10.66;}.cls-10{stroke-dasharray:10.7 10.7;}.cls-11{stroke-dasharray:10.39 10.39;}.cls-12{stroke-dasharray:10.8 10.8;}.cls-13{stroke-dasharray:11.63 11.63;}.cls-14{stroke-dasharray:10.52 10.52;}.cls-15{stroke-dasharray:11.39 11.39;}</style><linearGradient id="linear-gradient" x1="1284.52" y1="-820.31" x2="1255.14" y2="-801.12" gradientTransform="translate(-925.81 1026.37)" gradientUnits="userSpaceOnUse"><stop offset="0" stop-color="#6258a6"/><stop offset="1" stop-color="#f37051"/></linearGradient><linearGradient id="linear-gradient-2" x1="1296.07" y1="-816.24" x2="1308.21" y2="-831.54" xlink:href="#linear-gradient"/><linearGradient id="linear-gradient-3" x1="1299.15" y1="-801.13" x2="1299.15" y2="-778.79" xlink:href="#linear-gradient"/></defs><g id="Layer_2" data-name="Layer 2"><g id="Spider"><circle class="cls-1" cx="349.98" cy="255.06" r="136.8"/><path class="cls-2" d="M304.25,204.85v62.21a8.51,8.51,0,0,0,8.51,8.52h0a8.51,8.51,0,0,0,8.51-8.52V227.43l15.17,14.83a9.26,9.26,0,0,0,13.06-.13L365,226.33a8.64,8.64,0,0,0-.14-12.25h0a8.64,8.64,0,0,0-12-.06l-10.25,9.76-24.58-24.65A8.1,8.1,0,0,0,304.25,204.85Z"/><path class="cls-3" d="M388.16,183.27a6.45,6.45,0,0,0-5.28,6.85,7.08,7.08,0,0,1-4.19,7.16l-.13.06a7.28,7.28,0,0,1-3.87.35,8.06,8.06,0,0,0-3.47.16A8.39,8.39,0,1,0,381.48,208a8.28,8.28,0,0,0,.08-3.63,6.48,6.48,0,0,1,.3-3.62,9.71,9.71,0,0,1,1.52-2.61,6.52,6.52,0,0,1,5.48-2.11,6.06,6.06,0,0,0,2.48-.33,6.42,6.42,0,0,0-3.18-12.41Z"/><circle class="cls-4" cx="373.34" cy="179.71" r="5.06"/><rect class="cls-5" x="365.34" y="226.7" width="15.99" height="48.33" rx="8"/><text class="cls-6" transform="translate(263.84 336.65)">OUR SE<tspan class="cls-7" x="85.89" y="0">R</tspan><tspan x="100.9" y="0">VICES</tspan></text><line class="cls-8" x1="693.66" y1="255.06" x2="688.16" y2="255.06"/><line class="cls-9" x1="677.5" y1="255.06" x2="512.25" y2="255.06"/><line class="cls-8" x1="506.92" y1="255.06" x2="501.42" y2="255.06"/><line class="cls-8" x1="693.66" y1="3.18" x2="688.16" y2="3.18"/><line class="cls-10" x1="677.46" y1="3.18" x2="597.23" y2="3.18"/><line class="cls-8" x1="591.88" y1="3.18" x2="586.38" y2="3.18"/><line class="cls-8" x1="110.46" y1="3.18" x2="104.96" y2="3.18"/><line class="cls-10" x1="94.26" y1="3.18" x2="14.03" y2="3.18"/><line class="cls-8" x1="8.68" y1="3.18" x2="3.18" y2="3.18"/><line class="cls-8" x1="693.66" y1="425.37" x2="688.16" y2="425.37"/><line class="cls-10" x1="677.46" y1="425.37" x2="597.23" y2="425.37"/><line class="cls-8" x1="591.88" y1="425.37" x2="586.38" y2="425.37"/><line class="cls-8" x1="107.7" y1="425.37" x2="102.2" y2="425.37"/><line class="cls-11" x1="91.81" y1="425.37" x2="13.88" y2="425.37"/><line class="cls-8" x1="8.68" y1="425.37" x2="3.18" y2="425.37"/><line class="cls-8" x1="197.82" y1="255.06" x2="192.32" y2="255.06"/><line class="cls-12" x1="181.52" y1="255.06" x2="14.08" y2="255.06"/><line class="cls-8" x1="8.68" y1="255.06" x2="3.18" y2="255.06"/><line class="cls-8" x1="192.89" y1="85.05" x2="189" y2="81.16"/><line class="cls-13" x1="180.78" y1="72.94" x2="119.09" y2="11.25"/><line class="cls-8" x1="114.98" y1="7.14" x2="111.09" y2="3.25"/><line class="cls-8" x1="192.89" y1="340.72" x2="189" y2="344.61"/><line class="cls-13" x1="180.78" y1="352.83" x2="119.09" y2="414.52"/><line class="cls-8" x1="114.98" y1="418.63" x2="111.09" y2="422.52"/><line class="cls-8" x1="583.22" y1="422.52" x2="579.33" y2="418.63"/><line class="cls-13" x1="571.11" y1="410.4" x2="509.42" y2="348.72"/><line class="cls-8" x1="505.31" y1="344.61" x2="501.42" y2="340.72"/><line class="cls-8" x1="583.22" y1="3.25" x2="579.33" y2="7.14"/><line class="cls-13" x1="571.11" y1="15.37" x2="509.42" y2="77.05"/><line class="cls-8" x1="505.31" y1="81.16" x2="501.42" y2="85.05"/><line class="cls-8" x1="349.98" y1="491.28" x2="349.98" y2="485.78"/><line class="cls-14" x1="349.98" y1="475.26" x2="349.98" y2="417.39"/><line class="cls-8" x1="349.98" y1="412.12" x2="349.98" y2="406.62"/><line class="cls-8" x1="349.98" y1="97.08" x2="349.98" y2="91.58"/><line class="cls-15" x1="349.98" y1="80.19" x2="349.98" y2="17.56"/><line class="cls-8" x1="349.98" y1="11.86" x2="349.98" y2="6.36"/><circle class="cls-1" cx="3.18" cy="3.18" r="3.18"/><circle class="cls-1" cx="3.18" cy="255.06" r="3.18"/><circle class="cls-1" cx="3.18" cy="425.37" r="3.18"/><circle class="cls-1" cx="693.66" cy="3.18" r="3.18"/><circle class="cls-1" cx="349.98" cy="3.18" r="3.18"/><circle class="cls-1" cx="693.66" cy="255.06" r="3.18"/><circle class="cls-1" cx="693.66" cy="425.37" r="3.18"/><circle class="cls-1" cx="349.98" cy="492.51" r="3.18"/></g></g></svg>